<svg width="28" height="28" viewBox="0 0 28 28" fill="none" xmlns="http://www.w3.org/2000/svg">
<path fill-rule="evenodd" clip-rule="evenodd" d="M28 14C28 21.732 21.732 28 14 28C6.26801 28 0 21.732 0 14C0 6.26801 6.26801 0 14 0C21.732 0 28 6.26801 28 14ZM18.6667 7.66666C18.6667 10.244 16.5774 12.3333 14 12.3333C11.4227 12.3333 9.33338 10.244 9.33338 7.66666C9.33338 5.08933 11.4227 2.99999 14 2.99999C16.5774 2.99999 18.6667 5.08933 18.6667 7.66666ZM19.4997 16.1669C20.9584 17.6256 21.7778 19.6039 21.7778 21.6667H14L6.22224 21.6667C6.22224 19.6039 7.04168 17.6256 8.5003 16.1669C9.95892 14.7083 11.9372 13.8889 14 13.8889C16.0628 13.8889 18.0411 14.7083 19.4997 16.1669Z" fill="white"/>
</svg>
